<svg width="178" height="183" viewBox="0 0 178 183" fill="none" xmlns="http://www.w3.org/2000/svg">
<rect y="0.5" width="178" height="182" rx="89" fill="#313050"/>
<path d="M78.9154 104.792C72.1298 104.792 66.3834 102.44 61.6763 97.7346C56.9691 93.0294 54.6155 87.3295 54.6155 80.6346C54.6155 73.9398 56.9681 68.2398 61.6732 63.5347C66.3783 58.8296 72.0856 56.477 78.7951 56.477C85.5046 56.477 91.211 58.8296 95.9143 63.5347C100.617 68.2398 102.969 73.9402 102.969 80.6357C102.969 83.4375 102.49 86.1654 101.531 88.8192C100.572 91.473 99.1845 93.8769 97.3691 96.0307L121.723 120.223C122.169 120.64 122.399 121.186 122.411 121.862C122.424 122.539 122.195 123.106 121.723 123.565C121.251 124.024 120.684 124.254 120.02 124.254C119.357 124.254 118.804 124.018 118.361 123.546L94.1077 99.2922C92.1178 101.053 89.7975 102.41 87.1467 103.363C84.4959 104.316 81.7521 104.792 78.9154 104.792ZM78.8539 100.254C84.3176 100.254 88.9463 98.35 92.7401 94.5423C96.5339 90.7346 98.4308 86.0987 98.4308 80.6346C98.4308 75.1705 96.5339 70.5346 92.7401 66.7269C88.9463 62.9192 84.3176 61.0154 78.8539 61.0154C73.356 61.0154 68.6982 62.9192 64.8805 66.7269C61.0628 70.5346 59.1539 75.1705 59.1539 80.6346C59.1539 86.0987 61.0628 90.7346 64.8805 94.5423C68.6982 98.35 73.356 100.254 78.8539 100.254Z" fill="#A3A0D4"/>
</svg>
