<svg width="178" height="183" viewBox="0 0 178 183" fill="none" xmlns="http://www.w3.org/2000/svg">
<rect y="0.5" width="178" height="182" rx="89" fill="#313050"/>
<path d="M61.7694 126C60.2028 126 58.8496 125.43 57.7098 124.29C56.57 123.15 56.0001 121.797 56.0001 120.231V63.7694C56.0001 62.2028 56.57 60.8496 57.7098 59.7098C58.8496 58.57 60.2028 58.0001 61.7694 58.0001H118.231C119.797 58.0001 121.15 58.57 122.29 59.7098C123.43 60.8496 124 62.2028 124 63.7694V120.231C124 121.797 123.43 123.15 122.29 124.29C121.15 125.43 119.797 126 118.231 126H61.7694ZM61.7694 121.462H118.231C118.59 121.462 118.885 121.346 119.115 121.115C119.346 120.885 119.462 120.59 119.462 120.231V70.5385H60.5385V120.231C60.5385 120.59 60.6539 120.885 60.8847 121.115C61.1155 121.346 61.4104 121.462 61.7694 121.462ZM72.2692 90.2692C71.6263 90.2692 71.0874 90.0499 70.6524 89.6112C70.2175 89.1725 70 88.6289 70 87.9804C70 87.332 70.2175 86.7949 70.6524 86.3693C71.0874 85.9437 71.6263 85.7308 72.2692 85.7308H107C107.643 85.7308 108.182 85.9502 108.617 86.3888C109.052 86.8276 109.269 87.3712 109.269 88.0196C109.269 88.6681 109.052 89.2051 108.617 89.6307C108.182 90.0564 107.643 90.2692 107 90.2692H72.2692ZM72.2692 106.269C71.6263 106.269 71.0874 106.05 70.6524 105.611C70.2175 105.172 70 104.629 70 103.98C70 103.332 70.2175 102.795 70.6524 102.369C71.0874 101.944 71.6263 101.731 72.2692 101.731H91.0001C91.6431 101.731 92.182 101.95 92.6169 102.389C93.0519 102.828 93.2693 103.371 93.2693 104.02C93.2693 104.668 93.0519 105.205 92.6169 105.631C92.182 106.056 91.6431 106.269 91.0001 106.269H72.2692Z" fill="#A3A0D4"/>
</svg>
