<svg width="179" height="183" viewBox="0 0 179 183" fill="none" xmlns="http://www.w3.org/2000/svg">
<rect y="0.5" width="179" height="182" rx="89.5" fill="#313050"/>
<path d="M60.7693 126C59.2007 126 57.847 125.431 56.7082 124.292C55.5695 123.153 55.0001 121.799 55.0001 120.231V63.7694C55.0001 62.2008 55.5695 60.8471 56.7082 59.7083C57.847 58.5695 59.2007 58.0001 60.7693 58.0001H97.5924C98.2353 58.0001 98.7743 58.2195 99.2092 58.6582C99.6441 59.0969 99.8616 59.6404 99.8616 60.2889C99.8616 60.9374 99.6441 61.4744 99.2092 61.9001C98.7743 62.3257 98.2353 62.5385 97.5924 62.5385H60.7693C60.4616 62.5385 60.1795 62.6667 59.9231 62.9231C59.6666 63.1796 59.5384 63.4617 59.5384 63.7694V120.231C59.5384 120.538 59.6666 120.82 59.9231 121.077C60.1795 121.333 60.4616 121.462 60.7693 121.462H117.231C117.538 121.462 117.82 121.333 118.077 121.077C118.333 120.82 118.461 120.538 118.461 120.231V83.4075C118.461 82.7646 118.681 82.2256 119.119 81.7907C119.558 81.3558 120.102 81.1384 120.75 81.1384C121.399 81.1384 121.936 81.3558 122.361 81.7907C122.787 82.2256 123 82.7646 123 83.4075V120.231C123 121.799 122.43 123.153 121.292 124.292C120.153 125.431 118.799 126 117.231 126H60.7693ZM76.3307 111.223C75.6878 111.223 75.1488 111.004 74.7139 110.565C74.279 110.126 74.0615 109.583 74.0615 108.934C74.0615 108.286 74.279 107.749 74.7139 107.323C75.1488 106.897 75.6878 106.685 76.3307 106.685H101.731C102.374 106.685 102.913 106.904 103.348 107.343C103.782 107.781 104 108.325 104 108.973C104 109.622 103.782 110.159 103.348 110.585C102.913 111.01 102.374 111.223 101.731 111.223H76.3307ZM76.3307 98.7153C75.6878 98.7153 75.1488 98.496 74.7139 98.0573C74.279 97.6186 74.0615 97.0751 74.0615 96.4266C74.0615 95.7781 74.279 95.2411 74.7139 94.8154C75.1488 94.3898 75.6878 94.177 76.3307 94.177H101.731C102.374 94.177 102.913 94.3963 103.348 94.835C103.782 95.2737 104 95.8172 104 96.4657C104 97.1142 103.782 97.6512 103.348 98.0769C102.913 98.5025 102.374 98.7153 101.731 98.7153H76.3307ZM76.3307 86.2076C75.6878 86.2076 75.1488 85.9883 74.7139 85.5496C74.279 85.1109 74.0615 84.5674 74.0615 83.9189C74.0615 83.2704 74.279 82.7334 74.7139 82.3077C75.1488 81.8821 75.6878 81.6693 76.3307 81.6693H101.731C102.374 81.6693 102.913 81.8886 103.348 82.3273C103.782 82.766 104 83.3095 104 83.958C104 84.6065 103.782 85.1435 103.348 85.5692C102.913 85.9948 102.374 86.2076 101.731 86.2076H76.3307ZM114.142 77.7152C113.494 77.7152 112.956 77.4978 112.531 77.0629C112.105 76.628 111.892 76.089 111.892 75.4461V69.1076H105.554C104.911 69.1076 104.372 68.8883 103.937 68.4496C103.502 68.0109 103.285 67.4673 103.285 66.8188C103.285 66.1703 103.502 65.6333 103.937 65.2077C104.372 64.782 104.911 64.5692 105.554 64.5692H111.892V58.2692C111.892 57.6263 112.112 57.0873 112.55 56.6524C112.989 56.2175 113.533 56 114.181 56C114.83 56 115.367 56.2175 115.792 56.6524C116.218 57.0873 116.431 57.6263 116.431 58.2692V64.5692H122.731C123.374 64.5692 123.913 64.7885 124.348 65.2272C124.782 65.6659 125 66.2095 125 66.858C125 67.5065 124.782 68.0435 124.348 68.4691C123.913 68.8948 123.374 69.1076 122.731 69.1076H116.431V75.4461C116.431 76.089 116.211 76.628 115.773 77.0629C115.334 77.4978 114.79 77.7152 114.142 77.7152Z" fill="#A3A0D4"/>
</svg>
