<svg width="178" height="183" viewBox="0 0 178 183" fill="none" xmlns="http://www.w3.org/2000/svg">
<rect y="0.5" width="178" height="182" rx="89" fill="#313050"/>
<path d="M87.9815 104.538C87.5939 104.538 87.2398 104.465 86.9192 104.319C86.5988 104.173 86.2872 103.949 85.9846 103.646L73.0309 90.6924C72.5848 90.2304 72.3656 89.6893 72.3733 89.069C72.381 88.4488 72.6133 87.9027 73.0701 87.4309C73.5568 86.9592 74.107 86.7297 74.7206 86.7425C75.3343 86.7553 75.8787 86.9848 76.3539 87.4309L85.7308 96.8694V62.2693C85.7308 61.6251 85.9497 61.0859 86.3875 60.6516C86.8253 60.2173 87.3689 60.0001 88.0182 60.0001C88.6676 60.0001 89.2051 60.2173 89.6307 60.6516C90.0564 61.0859 90.2692 61.6251 90.2692 62.2693V96.8694L99.7076 87.4309C100.14 86.9848 100.664 86.772 101.278 86.7925C101.893 86.8131 102.449 87.0464 102.947 87.4925C103.39 87.9689 103.606 88.5201 103.594 89.1459C103.583 89.7718 103.354 90.3078 102.908 90.7539L90.0169 103.645C89.7133 103.948 89.3951 104.173 89.0623 104.319C88.7295 104.465 88.3693 104.538 87.9815 104.538ZM63.7694 120C62.2008 120 60.8471 119.431 59.7083 118.292C58.5695 117.153 58.0001 115.799 58.0001 114.231V103.969C58.0001 103.325 58.219 102.786 58.6568 102.351C59.0946 101.917 59.6382 101.7 60.2875 101.7C60.9369 101.7 61.4745 101.917 61.9001 102.351C62.3257 102.786 62.5385 103.325 62.5385 103.969V114.231C62.5385 114.538 62.6667 114.82 62.9231 115.077C63.1796 115.333 63.4617 115.462 63.7694 115.462H112.231C112.538 115.462 112.82 115.333 113.077 115.077C113.333 114.82 113.462 114.538 113.462 114.231V103.969C113.462 103.325 113.68 102.786 114.118 102.351C114.556 101.917 115.1 101.7 115.749 101.7C116.398 101.7 116.936 101.917 117.361 102.351C117.787 102.786 118 103.325 118 103.969V114.231C118 115.799 117.431 117.153 116.292 118.292C115.153 119.431 113.799 120 112.231 120H63.7694Z" fill="#A3A0D4"/>
</svg>
