<svg width="402" height="291" viewBox="0 0 402 291" fill="none" xmlns="http://www.w3.org/2000/svg">
<path d="M256.175 218.154V288.302H80.1922C60.1414 288.302 43.8278 272.567 43.8278 253.228C43.8278 233.888 60.1413 218.154 80.1922 218.154H256.175Z" fill="#F2F2F2"/>
<path d="M260.497 287.762C260.497 288.478 260.212 289.164 259.706 289.67C259.199 290.176 258.512 290.46 257.796 290.46H77.0577C67.2414 290.46 57.8273 286.566 50.8862 279.634C43.945 272.702 40.0456 263.301 40.0456 253.498C40.0456 243.695 43.945 234.293 50.8862 227.361C57.8273 220.429 67.2414 216.535 77.0577 216.535H257.796C258.512 216.535 259.199 216.819 259.706 217.325C260.213 217.831 260.497 218.517 260.497 219.233C260.497 219.948 260.213 220.635 259.706 221.141C259.199 221.647 258.512 221.931 257.796 221.931H77.0577C68.6745 221.931 60.6346 225.257 54.7068 231.177C48.779 237.097 45.4488 245.126 45.4488 253.498C45.4488 261.87 48.779 269.899 54.7068 275.819C60.6346 281.739 68.6745 285.064 77.0577 285.064H257.796C258.512 285.065 259.199 285.349 259.706 285.855C260.212 286.361 260.497 287.047 260.497 287.762Z" fill="#6C63FF"/>
<path d="M256.175 234.342H67.0617C66.9184 234.342 66.781 234.285 66.6796 234.184C66.5783 234.083 66.5214 233.945 66.5214 233.802C66.5214 233.659 66.5783 233.522 66.6796 233.421C66.781 233.319 66.9184 233.263 67.0617 233.263H256.175C256.318 233.263 256.455 233.319 256.557 233.421C256.658 233.522 256.715 233.659 256.715 233.802C256.715 233.945 256.658 234.083 256.557 234.184C256.455 234.285 256.318 234.342 256.175 234.342Z" fill="#CCCCCC"/>
<path d="M256.175 247.292H67.0617C66.9184 247.292 66.781 247.235 66.6796 247.134C66.5783 247.033 66.5214 246.896 66.5214 246.753C66.5214 246.61 66.5783 246.472 66.6796 246.371C66.781 246.27 66.9184 246.213 67.0617 246.213H256.175C256.318 246.213 256.455 246.27 256.557 246.371C256.658 246.472 256.715 246.61 256.715 246.753C256.715 246.896 256.658 247.033 256.557 247.134C256.455 247.235 256.318 247.292 256.175 247.292Z" fill="#CCCCCC"/>
<path d="M256.175 260.243H67.0617C66.9184 260.243 66.781 260.186 66.6796 260.085C66.5783 259.983 66.5214 259.846 66.5214 259.703C66.5214 259.56 66.5783 259.423 66.6796 259.322C66.781 259.22 66.9184 259.163 67.0617 259.163H256.175C256.318 259.163 256.455 259.22 256.557 259.322C256.658 259.423 256.715 259.56 256.715 259.703C256.715 259.846 256.658 259.983 256.557 260.085C256.455 260.186 256.318 260.243 256.175 260.243Z" fill="#CCCCCC"/>
<path d="M256.175 273.193H67.0617C66.9184 273.193 66.781 273.136 66.6796 273.035C66.5783 272.934 66.5214 272.797 66.5214 272.654C66.5214 272.51 66.5783 272.373 66.6796 272.272C66.781 272.171 66.9184 272.114 67.0617 272.114H256.175C256.318 272.114 256.455 272.171 256.557 272.272C256.658 272.373 256.715 272.51 256.715 272.654C256.715 272.797 256.658 272.934 256.557 273.035C256.455 273.136 256.318 273.193 256.175 273.193Z" fill="#CCCCCC"/>
<path d="M392.183 231.358L348.112 285.981L211.078 175.713C195.465 163.15 192.647 140.676 204.797 125.617C216.947 110.557 239.536 108.527 255.149 121.09L392.183 231.358Z" fill="#F2F2F2"/>
<path d="M351.817 288.27C351.367 288.827 350.714 289.182 350.002 289.259C349.29 289.335 348.576 289.126 348.018 288.678L207.281 175.43C199.637 169.279 194.753 160.348 193.703 150.601C192.654 140.854 195.524 131.09 201.683 123.457C207.842 115.823 216.785 110.946 226.545 109.897C236.304 108.849 246.082 111.715 253.725 117.866L394.462 231.113C394.739 231.336 394.969 231.61 395.139 231.921C395.309 232.232 395.417 232.574 395.455 232.926C395.493 233.278 395.461 233.635 395.361 233.975C395.261 234.315 395.095 234.632 394.872 234.908C394.65 235.184 394.375 235.414 394.063 235.583C393.752 235.753 393.41 235.86 393.057 235.898C392.704 235.936 392.347 235.904 392.006 235.804C391.666 235.704 391.349 235.538 391.072 235.315L250.335 122.068C247.103 119.465 243.389 117.523 239.406 116.354C235.422 115.185 231.247 114.811 227.119 115.254C222.991 115.697 218.99 116.947 215.346 118.934C211.702 120.921 208.485 123.606 205.88 126.835C203.275 130.063 201.333 133.773 200.164 137.752C198.994 141.73 198.622 145.9 199.067 150.023C199.512 154.145 200.765 158.14 202.756 161.778C204.748 165.417 207.437 168.628 210.671 171.228L351.408 284.476C351.966 284.925 352.322 285.577 352.399 286.288C352.475 287 352.266 287.712 351.817 288.27Z" fill="#CCCCCC"/>
<path d="M382.013 243.964L234.754 125.468C234.699 125.424 234.653 125.369 234.619 125.307C234.585 125.245 234.564 125.176 234.556 125.106C234.549 125.035 234.555 124.964 234.575 124.896C234.595 124.828 234.628 124.765 234.673 124.71C234.717 124.654 234.772 124.609 234.834 124.575C234.897 124.541 234.965 124.519 235.036 124.512C235.106 124.504 235.178 124.51 235.246 124.53C235.314 124.55 235.377 124.584 235.432 124.628L382.691 243.123C382.746 243.168 382.792 243.223 382.826 243.285C382.86 243.347 382.882 243.415 382.89 243.486C382.897 243.556 382.891 243.628 382.871 243.696C382.851 243.764 382.818 243.827 382.773 243.882C382.729 243.938 382.674 243.984 382.611 244.018C382.549 244.051 382.481 244.073 382.41 244.08C382.339 244.088 382.268 244.081 382.2 244.061C382.132 244.041 382.068 244.008 382.013 243.964Z" fill="#CCCCCC"/>
<path d="M373.877 254.048L226.618 135.553C226.507 135.463 226.436 135.332 226.42 135.19C226.405 135.048 226.447 134.906 226.537 134.794C226.627 134.683 226.757 134.612 226.9 134.596C227.042 134.581 227.185 134.623 227.296 134.712L374.555 253.208C374.61 253.252 374.656 253.307 374.69 253.369C374.724 253.431 374.746 253.5 374.753 253.57C374.761 253.641 374.755 253.712 374.735 253.78C374.715 253.848 374.682 253.911 374.637 253.967C374.592 254.022 374.537 254.068 374.475 254.102C374.413 254.136 374.344 254.157 374.274 254.165C374.203 254.172 374.132 254.166 374.064 254.146C373.995 254.126 373.932 254.092 373.877 254.048Z" fill="#CCCCCC"/>
<path d="M365.74 264.132L218.482 145.637C218.37 145.547 218.299 145.417 218.284 145.274C218.268 145.132 218.31 144.99 218.4 144.878C218.49 144.767 218.621 144.695 218.763 144.68C218.906 144.665 219.048 144.707 219.16 144.796L366.418 263.292C366.474 263.336 366.52 263.391 366.554 263.453C366.588 263.515 366.609 263.584 366.617 263.654C366.624 263.725 366.618 263.796 366.598 263.864C366.578 263.932 366.545 263.995 366.5 264.05C366.456 264.106 366.401 264.152 366.338 264.186C366.276 264.219 366.208 264.241 366.137 264.248C366.067 264.256 365.995 264.25 365.927 264.23C365.859 264.21 365.796 264.177 365.74 264.132Z" fill="#CCCCCC"/>
<path d="M357.604 274.216L210.346 155.721C210.29 155.677 210.245 155.622 210.211 155.56C210.177 155.497 210.155 155.429 210.148 155.359C210.14 155.288 210.146 155.217 210.166 155.149C210.186 155.081 210.219 155.018 210.264 154.962C210.309 154.907 210.364 154.861 210.426 154.827C210.488 154.793 210.556 154.772 210.627 154.764C210.697 154.757 210.769 154.763 210.837 154.783C210.905 154.803 210.968 154.836 211.024 154.881L358.282 273.376C358.338 273.42 358.384 273.475 358.418 273.538C358.452 273.6 358.473 273.668 358.481 273.739C358.489 273.809 358.482 273.88 358.462 273.948C358.442 274.017 358.409 274.08 358.364 274.135C358.32 274.19 358.265 274.236 358.203 274.27C358.14 274.304 358.072 274.326 358.001 274.333C357.931 274.341 357.859 274.334 357.791 274.314C357.723 274.294 357.659 274.261 357.604 274.216Z" fill="#CCCCCC"/>
<path d="M182.673 210.781L176.496 210.78L173.558 186.986L182.675 186.987L182.673 210.781Z" fill="#FFB8B8"/>
<path d="M172.083 209.017H183.996V216.508H164.583C164.583 215.524 164.777 214.55 165.153 213.642C165.53 212.733 166.083 211.907 166.779 211.211C167.476 210.516 168.303 209.964 169.213 209.588C170.123 209.211 171.098 209.017 172.083 209.017Z" fill="#2F2E41"/>
<path d="M119.566 210.781L113.389 210.78L110.451 186.986L119.568 186.987L119.566 210.781Z" fill="#FFB8B8"/>
<path d="M108.977 209.017H120.889V216.508H101.476C101.476 215.524 101.67 214.55 102.047 213.642C102.424 212.733 102.976 211.907 103.673 211.211C104.369 210.516 105.196 209.964 106.106 209.588C107.016 209.211 107.992 209.017 108.977 209.017Z" fill="#2F2E41"/>
<path d="M140.198 34.2826V31.5846C140.198 26.9692 142.034 22.5429 145.302 19.2794C148.57 16.0158 153.002 14.1824 157.623 14.1824C162.245 14.1824 166.677 16.0158 169.945 19.2794C173.213 22.5429 175.049 26.9692 175.049 31.5846V34.2826C175.049 37.6099 173.725 40.801 171.369 43.1538C169.013 45.5066 165.818 46.8284 162.486 46.8284H152.761C151.111 46.8284 149.477 46.5039 147.953 45.8734C146.429 45.2429 145.044 44.3188 143.877 43.1538C142.711 41.9888 141.786 40.6058 141.154 39.0837C140.523 37.5615 140.198 35.9301 140.198 34.2826Z" fill="#2F2E41"/>
<path d="M157.623 47.7567C164.953 47.7567 170.894 41.8231 170.894 34.5035C170.894 27.184 164.953 21.2503 157.623 21.2503C150.294 21.2503 144.352 27.184 144.352 34.5035C144.352 41.8231 150.294 47.7567 157.623 47.7567Z" fill="#FFB8B8"/>
<path d="M85.4383 80.053C85.9768 79.5451 86.6203 79.1614 87.3235 78.9288C88.0266 78.6961 88.7722 78.6203 89.5079 78.7066C90.2435 78.7929 90.9512 79.0392 91.5813 79.4282C92.2113 79.8172 92.7482 80.3395 93.1542 80.9581L104.531 78.8091L107.524 85.3947L91.4162 88.2042C90.3303 88.8166 89.0572 89.0098 87.8381 88.7473C86.6191 88.4849 85.5387 87.785 84.8019 86.7803C84.065 85.7755 83.7228 84.5357 83.8401 83.2959C83.9574 82.056 84.5261 80.9022 85.4383 80.053Z" fill="#FFB8B8"/>
<path d="M147.426 56.3282L128.771 68.6012L97.2925 78.6395C96.8752 78.7734 96.5173 79.0476 96.2797 79.4154C96.0421 79.7832 95.9395 80.2219 95.9893 80.6567L96.676 86.5636C96.7064 86.825 96.7912 87.0772 96.925 87.3039C97.0588 87.5307 97.2385 87.7271 97.4527 87.8804C97.6669 88.0338 97.9108 88.1407 98.1688 88.1944C98.4268 88.2482 98.6931 88.2474 98.9508 88.1923L128.577 81.8505C130.01 81.5454 131.366 80.9493 132.56 80.0992L153.518 65.2079C154.277 64.6651 154.884 63.9352 155.277 63.0892C155.671 62.2432 155.839 61.3098 155.764 60.3798C155.688 59.4486 155.369 58.5533 154.841 57.7822C154.312 57.0111 153.592 56.3906 152.751 55.9818C151.909 55.573 150.976 55.39 150.042 55.4507C149.109 55.5115 148.207 55.8139 147.426 56.3282Z" fill="#CCCCCC"/>
<path d="M176.606 204.028C176.132 204.028 175.668 203.891 175.271 203.632C174.874 203.373 174.561 203.004 174.37 202.571L146.052 132.692C145.986 132.54 145.875 132.412 145.734 132.326C145.593 132.239 145.429 132.198 145.264 132.207C145.098 132.216 144.94 132.276 144.81 132.378C144.679 132.48 144.583 132.619 144.535 132.777L121.431 200.807C121.334 201.123 121.173 201.417 120.957 201.669C120.742 201.921 120.477 202.126 120.18 202.272C119.882 202.418 119.558 202.502 119.226 202.518C118.895 202.535 118.564 202.483 118.253 202.367L110.506 199.465C110.086 199.309 109.717 199.04 109.44 198.687C109.164 198.334 108.991 197.912 108.941 197.466C105.455 167.145 135.849 90.6091 136.156 89.8397L136.241 89.6266L163.948 95.7472L164.005 95.8099C175.059 107.853 184.145 183.809 185.854 198.914C185.918 199.459 185.794 200.01 185.502 200.476C185.21 200.941 184.768 201.294 184.249 201.475L177.41 203.89C177.152 203.982 176.88 204.028 176.606 204.028Z" fill="#2F2E41"/>
<path d="M152.734 98.2107C146.022 98.2107 138.538 96.8741 136.234 91.3574L136.181 91.2306L136.253 91.1131C138.071 88.1337 140.474 83.0512 139.182 82.0972C136.638 80.2183 135.403 77.1275 135.513 72.9102C135.751 63.7555 141.997 55.6274 151.056 52.6846C153.584 51.8765 156.158 51.2149 158.762 50.703C160.661 50.3203 162.622 50.3624 164.503 50.8263C166.384 51.2901 168.138 52.1642 169.641 53.3858C171.162 54.6153 172.391 56.1661 173.241 57.9267C174.091 59.6873 174.54 61.614 174.555 63.5684C174.65 73.3518 173.142 86.9781 165.417 96.3332C165.055 96.7672 164.551 97.0598 163.995 97.1594C160.278 97.8308 156.511 98.1825 152.734 98.2107Z" fill="#CCCCCC"/>
<path d="M150.237 97.8444C150.603 96.5357 151.47 95.4238 152.652 94.7505C153.833 94.0771 155.233 93.8967 156.547 94.2484C156.816 94.3233 157.077 94.42 157.33 94.5377L165.968 86.6871L171.975 90.7289L159.622 101.646C159.064 102.65 158.186 103.439 157.128 103.888C156.069 104.336 154.89 104.418 153.78 104.121C153.133 103.944 152.527 103.64 151.998 103.228C151.469 102.816 151.027 102.304 150.698 101.72C150.368 101.137 150.158 100.494 150.079 99.8283C150 99.1631 150.054 98.4887 150.237 97.8444Z" fill="#FFB8B8"/>
<path d="M164.599 97.9441C164.039 97.9444 163.496 97.7508 163.062 97.3963L159.656 94.6163C159.372 94.3846 159.144 94.0917 158.989 93.7596C158.835 93.4275 158.757 93.0648 158.763 92.6986C158.769 92.3324 158.857 91.9722 159.022 91.6451C159.187 91.3179 159.423 91.0322 159.714 90.8093L174.002 79.8663C174.171 79.736 174.282 79.5442 174.311 79.3326C174.339 79.121 174.283 78.9066 174.155 78.736L165.336 67.0934C164.312 65.7453 163.798 64.0786 163.886 62.3885C163.974 60.6983 164.657 59.0936 165.816 57.8586C167.036 56.5424 168.707 55.7325 170.498 55.5895C172.288 55.4464 174.067 55.9808 175.481 57.0865L175.537 57.1453L184.745 70.3129C185.741 71.0926 186.543 72.0915 187.088 73.2318C187.633 74.3721 187.907 75.6229 187.888 76.8864C187.869 78.1498 187.558 79.3919 186.979 80.5154C186.4 81.639 185.569 82.6137 184.55 83.3635L166.047 97.4679C165.628 97.7772 165.12 97.9441 164.599 97.9441Z" fill="#CCCCCC"/>
<path d="M145.868 30.7752V24.1995L157.623 19.0733L168.832 24.1995V30.7752C168.832 31.0614 168.718 31.3359 168.516 31.5383C168.313 31.7407 168.038 31.8544 167.751 31.8544H146.949C146.662 31.8544 146.387 31.7407 146.185 31.5383C145.982 31.3359 145.868 31.0614 145.868 30.7752Z" fill="#2F2E41"/>
<path d="M157.084 15.0547C155.355 9.53 158.985 3.19841 164.352 1.01157C169.718 -1.17526 176.138 0.353406 180.666 3.96638C185.194 7.57935 188.003 12.9909 189.492 18.5848C190.98 24.1788 191.263 30.0119 191.538 35.7935C198.131 37.003 202.616 44.8126 200.332 51.1065C198.048 57.4005 189.594 60.5273 183.756 57.2376C177.918 53.948 176.227 45.1049 180.44 39.8982C182.434 37.4345 183.548 34.377 183.605 31.2098C183.662 28.0427 182.66 24.9469 180.757 22.413C178.853 19.879 176.158 18.0516 173.097 17.2203C170.036 16.3889 166.785 16.6011 163.859 17.8232C160.61 19.1803 156.533 15.6544 157.084 15.0547Z" fill="#2F2E41"/>
<path d="M83.0012 54.5445C75.1074 54.4928 67.3123 52.7878 60.1195 49.5398C59.6914 49.3492 59.328 49.0384 59.0735 48.6452C58.8191 48.252 58.6847 47.7934 58.6867 47.3252V27.674C58.6874 27.0302 58.9438 26.413 59.3996 25.9578C59.8555 25.5026 60.4735 25.2465 61.1181 25.2458H104.884C105.529 25.2465 106.147 25.5026 106.603 25.9578C107.059 26.413 107.315 27.0303 107.316 27.674V47.3253C107.318 47.7934 107.183 48.252 106.929 48.6452C106.674 49.0384 106.311 49.3492 105.883 49.5398C98.6901 52.7878 90.895 54.4928 83.0012 54.5445Z" fill="#6C63FF"/>
<path d="M82.9952 38.6247C82.6707 38.6249 82.3495 38.5604 82.0504 38.435L47.3444 23.8119C46.8968 23.6234 46.5161 23.3053 46.2512 22.8986C45.9864 22.4919 45.8496 22.0154 45.8585 21.5303C45.8674 21.0453 46.0216 20.5741 46.3012 20.1774C46.5808 19.7807 46.9729 19.4767 47.4271 19.3046L82.1335 6.15575C82.6925 5.94299 83.3106 5.94431 83.8687 6.15944L118.11 19.3083C118.562 19.4817 118.951 19.7858 119.229 20.1815C119.506 20.5773 119.659 21.0468 119.668 21.5299C119.677 22.013 119.542 22.4878 119.279 22.8935C119.016 23.2992 118.638 23.6175 118.193 23.8074L83.9515 38.4302C83.6491 38.5588 83.3238 38.625 82.9952 38.6247Z" fill="#6C63FF"/>
<path d="M62.7391 50.8769C64.5296 50.8769 65.981 49.4274 65.981 47.6393C65.981 45.8512 64.5296 44.4017 62.7391 44.4017C60.9486 44.4017 59.4972 45.8512 59.4972 47.6393C59.4972 49.4274 60.9486 50.8769 62.7391 50.8769Z" fill="#3F3D56"/>
<path opacity="0.2" d="M118.312 21.7318L84.0697 36.3546C83.8028 36.4686 83.5155 36.5277 83.2252 36.5284C82.9349 36.5291 82.6474 36.4714 82.3799 36.3587L47.6739 21.7361C47.2381 21.5568 46.8744 21.2377 46.6405 20.829C46.4875 21.094 46.3926 21.3885 46.3623 21.6929C46.332 21.9973 46.3668 22.3047 46.4646 22.5946C46.5623 22.8846 46.7207 23.1504 46.9292 23.3745C47.1377 23.5986 47.3916 23.7759 47.6739 23.8945L82.3799 38.5171C82.6474 38.6298 82.9349 38.6875 83.2252 38.6868C83.5155 38.6861 83.8028 38.627 84.0697 38.513L118.312 23.8902C118.593 23.7706 118.845 23.5928 119.052 23.3685C119.259 23.1443 119.416 22.8788 119.513 22.5895C119.61 22.3002 119.644 21.9937 119.613 21.6902C119.583 21.3867 119.488 21.0932 119.335 20.8289C119.103 21.2344 118.743 21.5518 118.312 21.7318Z" fill="black"/>
<path d="M63.0115 47.6266C63.1548 47.6266 63.2923 47.5698 63.3936 47.4686C63.4949 47.3674 63.5518 47.2301 63.5518 47.087V29.0312L81.3723 22.5478C81.5156 22.5499 81.6539 22.4951 81.7567 22.3954C81.8596 22.2957 81.9186 22.1593 81.9207 22.0162C81.9228 21.8731 81.868 21.735 81.7681 21.6323C81.6683 21.5296 81.5317 21.4707 81.3884 21.4686L63.5679 27.952C63.4245 27.9487 63.2819 27.9745 63.1488 28.0278C63.0157 28.0812 62.8948 28.161 62.7935 28.2623C62.691 28.3625 62.6097 28.4821 62.5544 28.6142C62.499 28.7462 62.4708 28.888 62.4712 29.0312V47.087C62.4712 47.2301 62.5281 47.3674 62.6295 47.4686C62.7308 47.5698 62.8682 47.6266 63.0115 47.6266Z" fill="#3F3D56"/>
</svg>
